<!DOCTYPE svg PUBLIC "-//W3C//DTD SVG 1.1//EN" "http://www.w3.org/Graphics/SVG/1.1/DTD/svg11.dtd">
<!-- Uploaded to: SVG Repo, www.svgrepo.com, Transformed by: SVG Repo Mixer Tools -->
<svg xmlns="http://www.w3.org/2000/svg" xmlns:xlink="http://www.w3.org/1999/xlink" version="1.1" id="Layer_1" viewBox="-44.8 -44.8 537.62 537.62" xml:space="preserve" width="256px" height="256px" fill="#000000" transform="matrix(-1, 0, 0, 1, 0, 0)rotate(-45)">
<g id="SVGRepo_bgCarrier" stroke-width="0">
<path transform="translate(-44.8, -44.8), scale(16.800625)" d="M16,27.32834275625646C17.70232296400463,26.613471767285464,18.286101859572575,24.312780942173585,19.991282555650773,23.604753542723433C21.952698727729732,22.79033170769414,24.403003153351353,24.12605878670091,26.247521370671517,23.07335328588912C28.212921054180534,21.95165817944032,30.31473765220242,19.996375006286875,30.278351916642848,17.73370580686414C30.24046324619846,15.377575683254882,27.302484058377186,14.189925341414966,26.072347553718103,12.180062437973003C25.103233762467855,10.596672423230144,25.340416429409107,8.237289181497985,23.816865353094425,7.176583003030451C22.275072489355374,6.103176773394217,20.157394408464384,6.777142315903019,18.278884376679944,6.7542026344804675C16.758962750381343,6.735641904271634,15.215239937737687,6.51236023655536,13.795058416930503,7.054200340971656C12.440351810043136,7.571059882216845,11.602209525326298,8.854455384225268,10.453841765226482,9.739681493015448C9.216715543032471,10.693327589506271,7.959936956722943,11.50922578313262,6.743902943659332,12.489625419028423C4.5335753831254895,14.271651507343503,-0.31357298414552603,15.137221854189876,0.32870781206838373,17.902839377114162C1.014075546629259,20.85398633265414,6.647710059282736,18.816227342174482,8.725295230053593,21.021366145733804C10.339538482498714,22.73471608894205,7.973336819094315,26.362614999146896,9.751964094941439,27.904637800394966C11.355560992580727,29.294913893508802,14.043183746876926,28.15008528084406,16,27.32834275625646" fill="#7ed0ec" strokewidth="0"/>
</g>
<g id="SVGRepo_tracerCarrier" stroke-linecap="round" stroke-linejoin="round"/>
<g id="SVGRepo_iconCarrier"> <g> <path style="fill:#0071CE;" d="M200.126,161.091c-8.325-17.186-15.836-48.897-44.21-48.897c-28.373,0-48.4,23.367,4.174,67.595 L200.126,161.091z"/> <path style="fill:#454F58;" d="M437.361,295.545c0-35.48-28.762-64.242-64.242-64.242c-34.559,0-113.951-23.638-155.737-65.423 c-41.786-41.786-64.768,4.357-91.928,4.357c-27.161,0-50.142-20.985-85.661-20.985c-35.518,0-34.473,51.279-34.473,92.02 c0,40.741,0,54.273,0,54.273H437.361z"/> <path style="fill:#C3C6C8;" d="M217.382,165.88c-41.786-41.786-64.768,4.357-91.928,4.357c-27.161,0-50.142-20.985-85.661-20.985 c-27.653,0-33.142,31.085-34.217,64.078c26.574,3.768,84.781,26.672,105.105,82.215h125.001 c-14.686-59.25,17.115-72.73,43.827-60.756c21.455,9.618,40.715-2.11,42.403-12.509 C286.039,211.824,244.052,192.549,217.382,165.88z"/> <g> <path style="fill:#0071CE;" d="M165.745,233.867h-57c-4.142,0-7.5-3.358-7.5-7.5c0-4.142,3.358-7.5,7.5-7.5h57 c4.142,0,7.5,3.358,7.5,7.5C173.245,230.509,169.887,233.867,165.745,233.867z"/> <path style="fill:#0071CE;" d="M181.01,256.711h-57c-4.142,0-7.5-3.358-7.5-7.5c0-4.142,3.358-7.5,7.5-7.5h57 c4.142,0,7.5,3.358,7.5,7.5C188.51,253.353,185.152,256.711,181.01,256.711z"/> </g> <path style="fill:#00B3E3;" d="M125.454,170.237c-27.161,0-50.142-20.985-85.661-20.985c-12.555,0-20.53,6.42-25.608,16.504 c30.033,5.918,64.411,35.633,108.864,33.708c24.479-1.06,57.639-33.992,93.814-34.09 C175.407,124.491,152.501,170.237,125.454,170.237z"/> <path style="fill:#E8E8E8;" d="M429.608,289.846h-35.8c-66.146,0-265.817-16.922-326.298-16.922H14.32 c-8.438,0-14.32,6.905-14.32,15.344v32.215c0,8.438,5.882,15.343,14.32,15.343h415.287c10.127,0,18.412-8.286,18.412-18.412v-9.156 C448.02,298.131,439.734,289.846,429.608,289.846z"/> <path style="fill:#0071CE;" d="M382.12,289.704c-29.316-0.629-74.753-3.306-122.727-6.345c2.492,7.871,3.945,15.984,1.783,21.016 c-2.956,6.879-16.243,20.591-27.504,31.451H376.47C380.882,322.236,384.199,305.694,382.12,289.704z"/> <path style="fill:#00B3E3;" d="M99.177,311.875H48.51c-4.142,0-7.5-3.358-7.5-7.5c0-4.142,3.358-7.5,7.5-7.5h50.667 c4.142,0,7.5,3.358,7.5,7.5C106.677,308.517,103.319,311.875,99.177,311.875z"/> <circle style="fill:#00416A;" cx="209.986" cy="185.568" r="7.5"/> <circle style="fill:#00416A;" cx="232.673" cy="201.289" r="7.5"/> <circle style="fill:#00416A;" cx="257.843" cy="214.945" r="7.501"/> </g> </g>
</svg>